<svg fill="none" height="32" viewBox="0 0 227 32" width="227" xmlns="http://www.w3.org/2000/svg"><path d="M9.52051 16.0696C9.52051 19.6882 12.4524 22.6196 16.0716 22.6196C19.6908 22.6196 22.6227 19.6882 22.6227 16.0696C22.6227 12.451 19.6908 9.51953 16.0716 9.51953C12.4524 9.51953 9.52051 12.451 9.52051 16.0696Z" fill="currentColor"></path><path d="M16.0404 3.71443e-05C7.13743 0.0189497 -0.0946374 7.35071 -5.93706e-05 16.2522C0.0882135 24.3152 6.11599 30.9535 13.9155 32V28.268C13.9155 27.1521 13.2283 26.1624 12.1942 25.7463C8.32912 24.1955 5.61157 20.4067 5.6494 15.9811C5.69985 10.2569 10.4351 5.61075 16.1602 5.66119C21.8727 5.71162 26.4881 10.3578 26.4881 16.0757C26.4881 20.4634 23.7769 24.2144 19.937 25.7526C18.9093 26.1624 18.2283 27.1395 18.2283 28.2427V32.0063C26.0846 30.9535 32.1439 24.227 32.1439 16.082C32.1502 7.1868 24.9307 -0.0188754 16.0404 3.71443e-05Z" fill="currentColor"></path><path d="M41.4316 8.84466V5.01172H59.4771V8.84466H52.7495V26.9881H48.1593V8.84466H41.4316Z" fill="currentColor"></path><path d="M66.9932 26.9818V5.01172H75.6628C77.3211 5.01172 78.7398 5.30802 79.9188 5.8943C81.0979 6.4869 81.9933 7.31905 82.6112 8.39706C83.2291 9.47508 83.538 10.7359 83.538 12.1922C83.538 13.6484 83.2228 14.903 82.5922 15.9495C81.9617 16.996 81.0538 17.8029 79.8621 18.3577C78.6704 18.9124 77.2328 19.1961 75.543 19.1961H69.7359V15.464H74.7927C75.6817 15.464 76.4131 15.3443 77.0058 15.0984C77.5922 14.8525 78.0273 14.4932 78.3173 14.0015C78.6074 13.5161 78.7524 12.9109 78.7524 12.1859C78.7524 11.4609 78.6074 10.8431 78.3173 10.3387C78.0273 9.83441 77.5859 9.45616 76.9995 9.19769C76.4068 8.93922 75.6691 8.80683 74.7738 8.80683H71.6401V26.9818H66.9932ZM78.8596 16.9834L84.3199 26.9818H79.1937L73.8532 16.9834H78.8659H78.8596Z" fill="currentColor"></path><path d="M91.3559 26.9818V5.01172H106.161V8.84466H95.9965V14.0771H105.398V17.9101H95.9965V23.1551H106.198V26.9881H91.3496L91.3559 26.9818Z" fill="currentColor"></path><path d="M114.395 26.9818V5.01172H129.2V8.84466H119.036V14.0771H128.437V17.9101H119.036V23.1551H129.237V26.9881H114.389L114.395 26.9818Z" fill="currentColor"></path><path d="M137.435 26.9818V5.01172H151.987V8.84466H142.082V14.0771H151.022V17.9101H142.082V26.9881H137.435V26.9818Z" fill="currentColor"></path><path d="M159.642 26.9818V5.01172H174.447V8.84466H164.283V14.0771H173.684V17.9101H164.283V23.1551H174.485V26.9881H159.636L159.642 26.9818Z" fill="currentColor"></path><path d="M182.681 26.9818V5.01172H191.35C193.009 5.01172 194.427 5.30802 195.606 5.8943C196.785 6.4869 197.681 7.31905 198.299 8.39706C198.917 9.47508 199.226 10.7359 199.226 12.1922C199.226 13.6484 198.91 14.903 198.28 15.9495C197.649 16.996 196.741 17.8029 195.55 18.3577C194.358 18.9124 192.92 19.1961 191.231 19.1961H185.423V15.464H190.48C191.369 15.464 192.101 15.3443 192.693 15.0984C193.28 14.8525 193.715 14.4932 194.005 14.0015C194.295 13.5161 194.44 12.9109 194.44 12.1859C194.44 11.4609 194.295 10.8431 194.005 10.3387C193.715 9.83441 193.273 9.45616 192.687 9.19769C192.094 8.93922 191.357 8.80683 190.461 8.80683H187.328V26.9818H182.681ZM194.547 16.9834L200.007 26.9818H194.881L189.541 16.9834H194.553H194.547Z" fill="currentColor"></path><path d="M210.834 26.9818H205.853L213.438 5.01172H219.428L227 26.9818H222.019L216.515 10.0298H216.344L210.827 26.9818H210.834ZM210.518 18.3451H222.278V21.97H210.518V18.3451Z" fill="currentColor"></path></svg>